<svg width="22" height="22" viewBox="0 0 22 22" fill="none" xmlns="http://www.w3.org/2000/svg">
<path d="M4 6.91553C4 5.54096 4 4.85367 4.42778 4.42761C4.85322 4 5.54078 4 6.91667 4C8.29256 4 8.97933 4 9.40556 4.42761C9.83333 4.85367 9.83333 5.54096 9.83333 6.91553C9.83333 8.29011 9.83333 8.9774 9.40556 9.40345C8.97933 9.83107 8.29178 9.83107 6.91667 9.83107C5.54156 9.83107 4.854 9.83107 4.42778 9.40345C4 8.97817 4 8.29089 4 6.91553ZM4 15.0845C4 13.7099 4 13.0226 4.42778 12.5965C4.854 12.1689 5.54156 12.1689 6.91667 12.1689C8.29178 12.1689 8.97933 12.1689 9.40556 12.5965C9.83333 13.0226 9.83333 13.7099 9.83333 15.0845C9.83333 16.459 9.83333 17.1463 9.40556 17.5724C8.97933 18 8.29178 18 6.91667 18C5.54156 18 4.854 18 4.42778 17.5724C4 17.1471 4 16.459 4 15.0845ZM12.1667 6.91553C12.1667 5.54096 12.1667 4.85367 12.5944 4.42761C13.0207 4 13.7082 4 15.0833 4C16.4584 4 17.146 4 17.5722 4.42761C18 4.85367 18 5.54096 18 6.91553C18 8.29011 18 8.9774 17.5722 9.40345C17.146 9.83107 16.4584 9.83107 15.0833 9.83107C13.7082 9.83107 13.0207 9.83107 12.5944 9.40345C12.1667 8.9774 12.1667 8.29011 12.1667 6.91553ZM12.1667 15.0845C12.1667 13.7099 12.1667 13.0226 12.5944 12.5965C13.0207 12.1689 13.7082 12.1689 15.0833 12.1689C16.4584 12.1689 17.146 12.1689 17.5722 12.5965C18 13.0226 18 13.7099 18 15.0845C18 16.459 18 17.1463 17.5722 17.5724C17.146 18 16.4584 18 15.0833 18C13.7082 18 13.0207 18 12.5944 17.5724C12.1667 17.1463 12.1667 16.459 12.1667 15.0845Z" stroke="#F8FAFC" stroke-width="1.5" stroke-linecap="round" stroke-linejoin="round"/>
</svg>
