<svg width="22" height="22" viewBox="0 0 22 22" fill="none" xmlns="http://www.w3.org/2000/svg">
<path d="M3.66669 17.0001V4.99995C3.66679 4.40336 3.9245 3.83103 4.38283 3.40917C4.84116 2.9873 5.46297 2.7501 6.11113 2.75H12.967L18.3334 7.68934V17.0001C18.3334 17.5968 18.0756 18.1689 17.6172 18.5908C17.1588 19.0127 16.5371 19.25 15.8889 19.25H6.11113C5.46297 19.2499 4.84116 19.0127 4.38283 18.5908C3.92454 18.1689 3.66669 17.5967 3.66669 17.0001ZM5.29711 17.0001C5.29711 17.199 5.38302 17.39 5.53583 17.5307C5.6885 17.671 5.89536 17.7503 6.11113 17.7504H15.8889C16.1049 17.7504 16.3126 17.6712 16.4654 17.5307C16.6182 17.39 16.7041 17.199 16.7041 17.0001V8.31116L12.2927 4.2507H6.11113C5.89517 4.2508 5.68854 4.32986 5.53583 4.47042C5.38311 4.61098 5.29722 4.80117 5.29711 4.99995V17.0001Z" fill="#94A3B8"/>
<path d="M13.4453 3.50035V7.2499H17.5189V8.7506H11.8148V3.50035H13.4453Z" fill="#94A3B8"/>
</svg>
