<svg width="22" height="22" viewBox="0 0 22 22" fill="none" xmlns="http://www.w3.org/2000/svg">
<path d="M11 2.75C15.5565 2.75 19.25 6.44353 19.25 11C19.25 15.5565 15.5565 19.25 11 19.25C6.44353 19.25 2.75 15.5565 2.75 11C2.75 6.44353 6.44353 2.75 11 2.75ZM11 4.4C9.24957 4.4 7.57084 5.09536 6.3331 6.3331C5.09536 7.57084 4.4 9.24957 4.4 11C4.4 12.7504 5.09536 14.4292 6.3331 15.6669C7.57084 16.9046 9.24957 17.6 11 17.6C12.7504 17.6 14.4292 16.9046 15.6669 15.6669C16.9046 14.4292 17.6 12.7504 17.6 11C17.6 9.24957 16.9046 7.57084 15.6669 6.3331C14.4292 5.09536 12.7504 4.4 11 4.4ZM11 14.3C11.2188 14.3 11.4286 14.3869 11.5834 14.5416C11.7381 14.6964 11.825 14.9062 11.825 15.125C11.825 15.3438 11.7381 15.5536 11.5834 15.7084C11.4286 15.8631 11.2188 15.95 11 15.95C10.7812 15.95 10.5714 15.8631 10.4166 15.7084C10.2619 15.5536 10.175 15.3438 10.175 15.125C10.175 14.9062 10.2619 14.6964 10.4166 14.5416C10.5714 14.3869 10.7812 14.3 11 14.3ZM11 6.4625C11.6949 6.46252 12.3681 6.70452 12.9039 7.14692C13.4398 7.58932 13.8048 8.20452 13.9364 8.88683C14.068 9.56914 13.9579 10.276 13.625 10.8859C13.2921 11.4959 12.7571 11.9708 12.1121 12.2292C12.0166 12.2644 11.9304 12.3211 11.8605 12.3951C11.8242 12.4363 11.8184 12.4891 11.8192 12.5436L11.825 12.65C11.8248 12.8603 11.7442 13.0625 11.5999 13.2154C11.4556 13.3683 11.2583 13.4603 11.0483 13.4727C10.8384 13.485 10.6317 13.4167 10.4705 13.2817C10.3092 13.1468 10.2056 12.9553 10.1808 12.7465L10.175 12.65V12.4437C10.175 11.4925 10.9423 10.9216 11.4983 10.698C11.7246 10.6077 11.922 10.4574 12.0694 10.2633C12.2167 10.0692 12.3083 9.83858 12.3345 9.59631C12.3607 9.35403 12.3204 9.1092 12.2179 8.88812C12.1154 8.66703 11.9546 8.47803 11.7528 8.34142C11.5511 8.20481 11.3159 8.12575 11.0725 8.11272C10.8292 8.0997 10.5869 8.1532 10.3717 8.26749C10.1565 8.38178 9.97643 8.55254 9.85093 8.76143C9.72544 8.97031 9.65922 9.20944 9.65937 9.45312C9.65937 9.67193 9.57246 9.88177 9.41774 10.0365C9.26302 10.1912 9.05318 10.2781 8.83437 10.2781C8.61557 10.2781 8.40573 10.1912 8.25101 10.0365C8.09629 9.88177 8.00938 9.67193 8.00938 9.45312C8.00938 8.65996 8.32446 7.89928 8.88531 7.33843C9.44616 6.77758 10.2068 6.4625 11 6.4625Z" fill="#94A3B8"/>
</svg>
