<svg width="24" height="24" viewBox="0 0 24 24" fill="none" xmlns="http://www.w3.org/2000/svg">
<path d="M18.3673 7.64313C19.6263 8.90144 20.4834 10.5049 20.8312 12.2505C21.1789 13.9965 21.0014 15.8068 20.3204 17.4517C19.6394 19.0965 18.4861 20.5026 17.006 21.4918C15.5258 22.481 13.7853 23.0084 12.005 23.0084C10.2247 23.0084 8.48419 22.481 7.00402 21.4918C5.52394 20.5026 4.37058 19.0965 3.68957 17.4517C3.00855 15.8068 2.83108 13.9965 3.17882 12.2505C3.52656 10.5049 4.38374 8.90144 5.64269 7.64313L11.9991 1.27496L18.3673 7.64313ZM7.05675 9.05719C6.07737 10.0359 5.41025 11.2833 5.13976 12.6412C4.86932 13.999 5.00766 15.4068 5.53722 16.6861C6.06688 17.9654 6.96417 19.0593 8.11535 19.8287C9.26659 20.598 10.6203 21.0084 12.005 21.0084C13.3897 21.0084 14.7434 20.598 15.8946 19.8287C17.0458 19.0593 17.9431 17.9654 18.4728 16.6861C19.0023 15.4068 19.1407 13.999 18.8702 12.6412C18.6166 11.368 18.0143 10.1922 17.1329 9.24371L16.9532 9.05719L12.0001 4.10406L7.05675 9.05719Z" fill="white"/>
</svg>
