<svg width="96" height="96" viewBox="0 0 96 96" fill="none" xmlns="http://www.w3.org/2000/svg">
<g clip-path="url(#clip0_35_481)">
<path d="M34.3444 65.3632L11 42.019H61.0237L74.3634 65.3632H34.3444Z" fill="url(#paint0_linear_35_481)"/>
<path d="M61.0238 25.3445L74.3635 2.00031L94.3727 33.6817L67.6934 33.6817L61.0238 25.3445Z" fill="url(#paint1_linear_35_481)"/>
<path d="M67.6933 33.6814L94.3726 33.6814L74.3629 65.3626L61.0233 42.0185L67.6933 33.6814Z" fill="url(#paint2_linear_35_481)"/>
<path d="M11 2.00037L34.3444 25.3445V65.363L11 42.0189V2.00037Z" fill="url(#paint3_linear_35_481)"/>
<path d="M34.3444 25.3441L11 1.99998L74.3634 1.99998L61.0237 25.3441L34.3444 25.3441Z" fill="url(#paint4_linear_35_481)"/>
<path d="M11 42.0195L34.3444 65.3636V77.8694L11 95.3775V42.0195Z" fill="url(#paint5_linear_35_481)"/>
<path d="M11 42.0195H34.3444V65.3636L11 42.0195Z" fill="#6571E8"/>
</g>
<defs>
<linearGradient id="paint0_linear_35_481" x1="74.3634" y1="53.6911" x2="11" y2="53.6911" gradientUnits="userSpaceOnUse">
<stop stop-color="#0EA5E9"/>
<stop offset="1" stop-color="#10B981"/>
</linearGradient>
<linearGradient id="paint1_linear_35_481" x1="64.4246" y1="9.08951" x2="86.1496" y2="39.5471" gradientUnits="userSpaceOnUse">
<stop stop-color="#F472B6"/>
<stop offset="1" stop-color="#FB923C"/>
</linearGradient>
<linearGradient id="paint2_linear_35_481" x1="86.1495" y1="27.816" x2="64.4244" y2="58.2737" gradientUnits="userSpaceOnUse">
<stop stop-color="#22C55E"/>
<stop offset="1" stop-color="#FDE047"/>
</linearGradient>
<linearGradient id="paint3_linear_35_481" x1="22.6722" y1="2.00037" x2="22.6722" y2="65.363" gradientUnits="userSpaceOnUse">
<stop stop-color="#8B5CF6"/>
<stop offset="1" stop-color="#6366F1"/>
</linearGradient>
<linearGradient id="paint4_linear_35_481" x1="11" y1="13.672" x2="74.3634" y2="13.6721" gradientUnits="userSpaceOnUse">
<stop stop-color="#A855F7"/>
<stop offset="1" stop-color="#EC4899"/>
</linearGradient>
<linearGradient id="paint5_linear_35_481" x1="22.6722" y1="42.0195" x2="22.6722" y2="95.3775" gradientUnits="userSpaceOnUse">
<stop stop-color="#06B6D4"/>
<stop offset="1" stop-color="#14B8A6"/>
</linearGradient>
<clipPath id="clip0_35_481">
<rect width="96" height="96" fill="white"/>
</clipPath>
</defs>
</svg>
