<svg width="22" height="22" viewBox="0 0 22 22" fill="none" xmlns="http://www.w3.org/2000/svg">
<path d="M8.24999 6.41668L8.24998 15.5834C8.24998 16.5959 7.42917 17.4167 6.41665 17.4167C5.40413 17.4167 4.58332 16.5959 4.58332 15.5833C4.58333 14.5708 5.40414 13.75 6.41666 13.75H15.5833C16.5958 13.75 17.4166 14.5708 17.4166 15.5833C17.4166 16.5959 16.5958 17.4167 15.5833 17.4167C14.5708 17.4167 13.75 16.5959 13.75 15.5833V6.41668C13.75 5.40416 14.5708 4.58334 15.5833 4.58334C16.5958 4.58334 17.4166 5.40416 17.4166 6.41669C17.4166 7.4292 16.5958 8.25001 15.5833 8.25001H6.41665C5.40412 8.25001 4.58331 7.4292 4.58331 6.41668C4.58331 5.40415 5.40413 4.58334 6.41665 4.58334C7.42918 4.58334 8.24999 5.40416 8.24999 6.41668Z" stroke="#94A3B8"/>
</svg>
