<svg width="22" height="22" viewBox="0 0 22 22" fill="none" xmlns="http://www.w3.org/2000/svg">
<path d="M13.2257 6.29972C13.0746 6.4539 12.9899 6.66119 12.9899 6.87708C12.9899 7.09298 13.0746 7.30027 13.2257 7.45445L14.5454 8.77414C14.6996 8.92527 14.9069 9.00992 15.1228 9.00992C15.3387 9.00992 15.546 8.92527 15.7002 8.77414L18.2621 6.21311C18.5261 5.94753 18.9739 6.03166 19.0729 6.39292C19.3221 7.29928 19.308 8.25787 19.0323 9.15652C18.7566 10.0552 18.2306 10.8567 17.516 11.4673C16.8013 12.078 15.9275 12.4724 14.9968 12.6046C14.0661 12.7368 13.1171 12.6011 12.2607 12.2136L5.73626 18.7378C5.40813 19.0658 4.96312 19.2501 4.49914 19.25C4.03516 19.2499 3.59022 19.0655 3.26219 18.7374C2.93416 18.4093 2.74992 17.9643 2.75 17.5003C2.75008 17.0364 2.93447 16.5914 3.2626 16.2634L9.787 9.73917C9.39945 8.88278 9.26381 7.93373 9.39597 7.00307C9.52813 6.07241 9.92262 5.19864 10.5333 4.484C11.1439 3.76936 11.9455 3.2434 12.8441 2.96768C13.7428 2.69196 14.7014 2.67788 15.6078 2.92708C15.9691 3.02606 16.0532 3.4731 15.7884 3.73869L13.2257 6.29972Z" stroke="#94A3B8" stroke-linecap="round" stroke-linejoin="round"/>
</svg>
