<svg width="26" height="26" viewBox="0 0 26 26" fill="none" xmlns="http://www.w3.org/2000/svg">
    <path d="M10.6577 1.31605C13.1915 0.808133 15.822 1.13718 18.1522 2.25445C18.6916 2.51307 18.9195 3.16018 18.6611 3.6996C18.4024 4.23896 17.7553 4.46684 17.2159 4.20847C15.3095 3.29435 13.1571 3.02492 11.0841 3.4404C9.01092 3.85598 7.12828 4.93429 5.72137 6.51267C4.31468 8.09095 3.45936 10.0838 3.28387 12.1906C3.10839 14.2977 3.62267 16.4051 4.74912 18.1945C5.87556 19.9837 7.55314 21.3582 9.5289 22.111C11.5047 22.8637 13.6716 22.9542 15.7031 22.3681C17.7346 21.7819 19.5207 20.5507 20.7918 18.861C22.0627 17.1713 22.75 15.1143 22.75 13C22.75 12.4017 23.235 11.9166 23.8333 11.9166C24.4317 11.9166 24.9167 12.4017 24.9167 13C24.9167 15.5842 24.0761 18.0981 22.5226 20.1633C20.9691 22.2284 18.7868 23.7325 16.304 24.449C13.8211 25.1655 11.1725 25.0558 8.75766 24.1359C6.34283 23.2158 4.29247 21.5355 2.9157 19.3487C1.53894 17.1617 0.910129 14.5861 1.12461 12.0108C1.33912 9.43552 2.38531 6.99977 4.10483 5.07069C5.82433 3.14173 8.12403 1.82399 10.6577 1.31605Z" fill="#EF4444"/>
    <path d="M14.9424 9.52569C15.3655 9.10262 16.0512 9.10262 16.4743 9.52569C16.8974 9.94876 16.8974 10.6345 16.4743 11.0576L11.0576 16.4743C10.6346 16.8973 9.9488 16.8973 9.52573 16.4743C9.10266 16.0512 9.10266 15.3654 9.52573 14.9424L14.9424 9.52569Z" fill="#EF4444"/>
    <path d="M9.52573 9.52569C9.9488 9.10262 10.6346 9.10262 11.0576 9.52569L16.4743 14.9424C16.8974 15.3654 16.8974 16.0512 16.4743 16.4743C16.0512 16.8973 15.3655 16.8973 14.9424 16.4743L9.52573 11.0576C9.10266 10.6345 9.10266 9.94876 9.52573 9.52569Z" fill="#EF4444"/>
</svg>
