<svg width="24" height="24" viewBox="0 0 24 24" fill="none" xmlns="http://www.w3.org/2000/svg">
<path d="M9.838 1.21485C12.1769 0.746002 14.605 1.04973 16.756 2.08106C17.2538 2.31979 17.4642 2.91712 17.2257 3.41505C16.987 3.91292 16.3896 4.12327 15.8917 3.88477C14.1319 3.04097 12.1451 2.79227 10.2316 3.17579C8.31787 3.5594 6.58004 4.55476 5.28136 6.01173C3.98287 7.4686 3.19335 9.30812 3.03136 11.2529C2.86937 13.198 3.3441 15.1432 4.38389 16.7949C5.42369 18.4465 6.97222 19.7153 8.796 20.4102C10.6198 21.105 12.62 21.1885 14.4952 20.6475C16.3705 20.1064 18.0192 18.9699 19.1925 17.4102C20.3657 15.8505 21.0001 13.9517 21.0001 12C21.0001 11.4477 21.4478 11 22.0001 11C22.5524 11 23.0001 11.4477 23.0001 12C23.0001 14.3855 22.2242 16.706 20.7901 18.6123C19.3562 20.5186 17.3418 21.907 15.0499 22.5684C12.758 23.2297 10.3132 23.1285 8.08409 22.2793C5.85502 21.43 3.96237 19.879 2.69151 17.8604C1.42065 15.8416 0.840213 13.4642 1.03819 11.0869C1.2362 8.70974 2.20192 6.46136 3.78917 4.68067C5.3764 2.90009 7.4992 1.68371 9.838 1.21485Z" fill="#06B6D4"/>
<path d="M12.0001 10C12.5524 10 13.0001 10.5227 13.0001 11.167V15.833C13.0001 16.4773 12.5524 17 12.0001 17C11.4478 17 11.0001 16.4773 11.0001 15.833V11.167C11.0001 10.5227 11.4478 10 12.0001 10ZM12.0001 7.00001C12.5524 7.00001 13.0001 7.44772 13.0001 8.00001C13.0001 8.55229 12.5524 9.00001 12.0001 9.00001C11.4478 9.00001 11.0001 8.55229 11.0001 8.00001C11.0001 7.44772 11.4478 7.00001 12.0001 7.00001Z" fill="#06B6D4"/>
</svg>
