<svg width="26" height="26" viewBox="0 0 26 26" fill="none" xmlns="http://www.w3.org/2000/svg">
<path d="M10.6577 1.31605C13.1915 0.808133 15.822 1.13718 18.1522 2.25445C18.6916 2.51307 18.9195 3.16018 18.6611 3.6996C18.4024 4.23896 17.7553 4.46684 17.2159 4.20847C15.3095 3.29435 13.1571 3.02492 11.0841 3.4404C9.01092 3.85598 7.12828 4.93429 5.72137 6.51267C4.31468 8.09095 3.45936 10.0838 3.28387 12.1906C3.10839 14.2977 3.62267 16.4051 4.74912 18.1945C5.87556 19.9837 7.55314 21.3582 9.5289 22.111C11.5047 22.8637 13.6716 22.9542 15.7031 22.3681C17.7346 21.7819 19.5207 20.5507 20.7918 18.861C22.0627 17.1713 22.75 15.1143 22.75 13C22.75 12.4017 23.235 11.9166 23.8333 11.9166C24.4317 11.9166 24.9167 12.4017 24.9167 13C24.9167 15.5842 24.0761 18.0981 22.5226 20.1633C20.9691 22.2284 18.7868 23.7325 16.304 24.449C13.8211 25.1655 11.1725 25.0558 8.75766 24.1359C6.34283 23.2158 4.29247 21.5355 2.9157 19.3487C1.53894 17.1617 0.910129 14.5861 1.12461 12.0108C1.33912 9.43552 2.38531 6.99977 4.10483 5.07069C5.82433 3.14173 8.12403 1.82399 10.6577 1.31605Z" fill="#22C55E"/>
<path d="M23.0674 3.56736C23.4903 3.14446 24.1761 3.14463 24.5993 3.56736C25.0222 3.99024 25.022 4.67611 24.5993 5.09926L14.533 15.1762C13.687 16.023 12.3135 16.0237 11.4671 15.1772L8.98406 12.6932C8.56112 12.2701 8.56104 11.5843 8.98406 11.1613C9.4071 10.7384 10.0929 10.7384 10.516 11.1613L13 13.6453L23.0674 3.56736Z" fill="#22C55E"/>
</svg>
