<svg width="26" height="26" viewBox="0 0 26 26" fill="none" xmlns="http://www.w3.org/2000/svg">
    <path d="M12.9982 2.05835C13.5567 2.05839 14.1059 2.20224 14.5925 2.47624C15.0183 2.71593 15.3834 3.04836 15.6621 3.44743L15.7764 3.62305L24.9562 18.9463L24.9646 18.9611C25.2484 19.4525 25.3989 20.0102 25.4005 20.5776C25.402 21.145 25.254 21.7034 24.9731 22.1963C24.6921 22.6891 24.2866 23.0998 23.7977 23.3875C23.3087 23.6752 22.7527 23.8299 22.1854 23.8361H3.80999C3.24262 23.8298 2.6867 23.6753 2.19768 23.3875C1.7087 23.0998 1.30331 22.6892 1.02231 22.1963C0.741337 21.7034 0.59442 21.145 0.595959 20.5776C0.597548 20.0102 0.748055 19.4525 1.03183 18.9611L1.0403 18.9463L10.219 3.62305C10.5087 3.14547 10.9172 2.75027 11.4039 2.47624C11.8906 2.20232 12.4398 2.05835 12.9982 2.05835ZM12.9982 4.22502C12.812 4.22502 12.6283 4.27332 12.4661 4.36466C12.304 4.456 12.1679 4.58754 12.0715 4.74658L2.90756 20.0444C2.81305 20.2081 2.76324 20.3939 2.76263 20.5829C2.7621 20.7719 2.8109 20.9583 2.90439 21.1225C2.99806 21.2868 3.13386 21.4243 3.29689 21.5203C3.45985 21.6161 3.64529 21.6674 3.83432 21.6694H22.1621C22.3512 21.6673 22.5366 21.6162 22.6996 21.5203C22.8626 21.4243 22.9973 21.2868 23.091 21.1225C23.1846 20.9582 23.2343 20.772 23.2338 20.5829C23.2332 20.3939 23.1823 20.2081 23.0878 20.0444L13.9239 4.74658L13.8446 4.63232C13.758 4.52392 13.6509 4.43315 13.5293 4.36466C13.3671 4.27336 13.1843 4.22506 12.9982 4.22502Z" fill="#FB923C"/>
    <path d="M11.9167 15.1667V10.8333C11.9167 10.235 12.4018 9.75002 13.0001 9.75002C13.5984 9.75002 14.0834 10.235 14.0834 10.8333V15.1667C14.0834 15.765 13.5984 16.25 13.0001 16.25C12.4018 16.25 11.9167 15.765 11.9167 15.1667Z" fill="#FB923C"/>
    <path d="M14.0834 18.4167C14.0834 19.015 13.5984 19.5 13.0001 19.5C12.4018 19.5 11.9167 19.015 11.9167 18.4167C11.9167 17.8184 12.4018 17.3333 13.0001 17.3333C13.5984 17.3333 14.0834 17.8184 14.0834 18.4167Z" fill="#FB923C"/>
</svg>
